<svg width="8" height="11" viewBox="0 0 8 11" fill="none" xmlns="http://www.w3.org/2000/svg">
<path d="M0.823887 3.019C0.86722 2.15233 1.17055 1.485 1.73389 1.017C2.30589 0.540333 3.05555 0.301999 3.98289 0.301999C4.61555 0.301999 5.15722 0.414666 5.60789 0.64C6.05855 0.856666 6.39655 1.15567 6.62189 1.537C6.85589 1.90967 6.97289 2.33433 6.97289 2.811C6.97289 3.357 6.82989 3.82067 6.54389 4.202C6.26655 4.57467 5.93289 4.826 5.54289 4.956V5.008C6.04555 5.164 6.43555 5.44133 6.71289 5.84C6.99889 6.23867 7.14189 6.75 7.14189 7.374C7.14189 7.894 7.02055 8.35767 6.77789 8.765C6.54389 9.17233 6.19289 9.493 5.72489 9.727C5.26555 9.95233 4.71089 10.065 4.06089 10.065C3.08155 10.065 2.28422 9.818 1.66889 9.324C1.05355 8.83 0.728553 8.102 0.693887 7.14H2.46189C2.47922 7.56467 2.62222 7.907 2.89089 8.167C3.16822 8.41833 3.54522 8.544 4.02189 8.544C4.46389 8.544 4.80189 8.42267 5.03589 8.18C5.27855 7.92867 5.39989 7.608 5.39989 7.218C5.39989 6.698 5.23522 6.32533 4.90589 6.1C4.57655 5.87467 4.06522 5.762 3.37189 5.762H2.99489V4.267H3.37189C4.60255 4.267 5.21789 3.85533 5.21789 3.032C5.21789 2.65933 5.10522 2.369 4.87989 2.161C4.66322 1.953 4.34689 1.849 3.93089 1.849C3.52355 1.849 3.20722 1.96167 2.98189 2.187C2.76522 2.40367 2.63955 2.681 2.60489 3.019H0.823887Z" fill="black"/>
</svg>
