<svg width="7" height="10" viewBox="0 0 7 10" fill="none" xmlns="http://www.w3.org/2000/svg">
<path d="M6.3759 2.096H2.16389V4.319C2.34589 4.09367 2.60589 3.91167 2.94389 3.773C3.28189 3.62567 3.64156 3.552 4.02289 3.552C4.71623 3.552 5.28389 3.70367 5.72589 4.007C6.16789 4.31033 6.48856 4.70033 6.68789 5.177C6.88723 5.645 6.98689 6.14767 6.98689 6.685C6.98689 7.68167 6.7009 8.48333 6.1289 9.09C5.56556 9.69667 4.75956 10 3.71089 10C2.72289 10 1.93423 9.753 1.34489 9.259C0.755561 8.765 0.421895 8.11933 0.343895 7.322H2.11189C2.18989 7.66867 2.36323 7.946 2.63189 8.154C2.90923 8.362 3.26023 8.466 3.68489 8.466C4.19623 8.466 4.58189 8.30567 4.84189 7.985C5.10189 7.66433 5.23189 7.23967 5.23189 6.711C5.23189 6.17367 5.09756 5.76633 4.82889 5.489C4.56889 5.203 4.18323 5.06 3.67189 5.06C3.30789 5.06 3.00456 5.151 2.76189 5.333C2.51923 5.515 2.34589 5.75767 2.24189 6.061H0.499895V0.497H6.3759V2.096Z" fill="black"/>
</svg>
